#!OML:ASF E:\emotionWalksFemale\Project 1\Capture day 1\Session 1\Female1.ASF
:FULLY-SPECIFIED
:DEGREES
486
root 8.52582 15.4887 19.8867 359.095 -1.4382 0.129422
lowerback 7.4497 0.757962 0.491301
upperback -4.28407 1.07985 0.0910873
thorax -8.70842 0.500025 -0.340096
lowerneck -6.58571 -2.89244 -7.93762
upperneck 10.7284 -3.8161 6.79244
head 4.56962 -1.8182 3.16851
rclavicle 2.5345e-015 -9.93923e-017
rhumerus -44.3666 7.28755 -84.5319
rradius 31.2439
rwrist 26.1193
rhand 0.606582 -55.203
rfingers 7.12502
rthumb 26.1712 -803.419
lclavicle 2.5345e-015 -9.93923e-017
lhumerus -33.6588 2.73603 77.2611
lradius 45.2122
lwrist 2.25697
lhand -8.16341 -36.981
lfingers 7.12502
lthumb 17.7516 -7.77122
rfemur -0.501051 18.309 27.2669
rtibia 16.2094
rfoot -18.6348 -25.9709
rtoes -14.5637
lfemur -6.13783 -16.1798 -25.498
ltibia 23.7193
lfoot -26.3084 20.5667
ltoes -27.9782
487
root 8.52452 15.4862 19.8981 359.102 -1.68646 0.182313
lowerback 7.52323 0.763163 0.396144
upperback -4.38809 1.07692 0.0890439
thorax -8.86654 0.50324 -0.290509
lowerneck -6.52015 -2.78872 -7.80383
upperneck 10.8692 -3.70184 6.79676
head 4.59016 -1.7579 3.15651
rclavicle 8.83349e-015 4.96962e-016
rhumerus -44.4881 7.15127 -84.6325
rradius 31.0899
rwrist 26.5423
rhand 1.27582 -55.4578
rfingers 7.12502
rthumb 26.8118 -803.577
lclavicle 8.83349e-015 4.96962e-016
lhumerus -34.3369 2.65253 77.5305
lradius 45.4013
lwrist 2.31764
lhand -8.07194 -36.9939
lfingers 7.12502
lthumb 17.8396 -7.79214
rfemur -0.481261 18.3918 27.2353
rtibia 16.2676
rfoot -18.4801 -25.9079
rtoes -14.7233
lfemur -6.09458 -16.1172 -25.5248
ltibia 23.6637
lfoot -26.1027 20.1171
ltoes -24.9514
488
root 8.52473 15.4857 19.9117 359.08 -1.91159 0.267884
lowerback 7.68882 0.734568 0.307771
upperback -4.53901 1.02704 0.0550241
thorax -9.13002 0.481758 -0.273294
lowerneck -6.47524 -2.67584 -7.57357
upperneck 11.1426 -3.57949 6.71348
head 4.65107 -1.69427 3.10191
rclavicle -6.44808e-015 -6.55989e-015
rhumerus -44.7699 6.99213 -84.7963
rradius 31.0542
rwrist 27.0614
rhand 2.09463 -55.806
rfingers 7.12502
rthumb 27.5951 -803.803
lclavicle -6.44808e-015 -6.55989e-015
lhumerus -35.1809 2.63536 77.7262
lradius 45.622
lwrist 2.37455
lhand -8.01061 -36.9868
lfingers 7.12502
lthumb 17.8986 -7.79041
rfemur -0.416471 18.3477 27.144
rtibia 16.2643
rfoot -18.257 -25.7437
rtoes -14.6824
lfemur -6.05263 -16.1792 -25.6077
ltibia 23.6406
lfoot -25.6457 19.9124
ltoes -22.1992
489
root 8.52706 15.4898 19.9241 359.099 -2.12625 0.278032
lowerback 7.79662 0.701696 0.35746
upperback -4.6524 0.987617 0.0307601
thorax -9.31674 0.457616 -0.323479
lowerneck -6.50659 -2.62643 -7.43245
upperneck 11.3585 -3.52979 6.66549
head 4.71529 -1.6664 3.06734
rclavicle 5.49143e-015 3.97569e-015
rhumerus -45.0519 7.06283 -85.1471
rradius 31.0444
rwrist 26.7505
rhand 1.6433 -55.6024
rfingers 7.12502
rthumb 27.1634 -803.667
lclavicle 5.49143e-015 3.97569e-015
lhumerus -35.69 2.51892 77.9956
lradius 45.3854
lwrist 2.60064
lhand -8.14845 -36.9615
lfingers 7.12502
lthumb 17.766 -7.75312
rfemur -0.426062 18.2886 27.0923
rtibia 16.2768
rfoot -18.2186 -25.4927
rtoes -14.1792
lfemur -6.04075 -16.052 -25.6251
ltibia 23.6161
lfoot -24.8311 19.8328
ltoes -21.0489
490
root 8.53111 15.4901 19.9344 359.069 -2.41702 0.243615
lowerback 7.88808 0.711794 0.49459
upperback -4.6714 1.01628 0.0100233
thorax -9.38877 0.461576 -0.428638
lowerneck -6.53626 -2.59394 -7.38807
upperneck 11.3884 -3.49922 6.73816
head 4.72745 -1.64488 3.08467
rclavicle 5.00689e-015 1.67973e-014
rhumerus -45.212 7.17253 -85.5616
rradius 30.9871
rwrist 26.2715
rhand 0.501559 -55.0692
rfingers 7.12502
rthumb 26.0707 -803.3
lclavicle 5.00689e-015 1.67973e-014
lhumerus -36.0734 2.38533 78.3344
lradius 45.1702
lwrist 2.82001
lhand -8.06138 -36.7428
lfingers 7.12502
lthumb 17.8498 -7.54201
rfemur -0.369374 18.3828 27.1152
rtibia 16.2699
rfoot -18.1773 -25.3043
rtoes -13.8616
lfemur -5.92725 -15.9524 -25.6308
ltibia 23.614
lfoot -24.237 19.8905
ltoes -20.4723
491
root 8.53333 15.4867 19.9453 358.947 -2.72143 0.342195
lowerback 8.08957 0.737563 0.445423
upperback -4.67259 1.04314 -0.0238887
thorax -9.50939 0.475655 -0.44455
lowerneck -6.48677 -2.54064 -7.38703
upperneck 11.3416 -3.43939 6.82696
head 4.70155 -1.6113 3.11657
rclavicle 1.03865e-014 1.27222e-014
rhumerus -45.3718 7.25019 -85.9283
rradius 30.9853
rwrist 26.1547
rhand -0.035873 -54.8332
rfingers 7.12502
rthumb 25.556 -803.139
lclavicle 1.03865e-014 1.27222e-014
lhumerus -36.6531 2.4953 78.6369
lradius 45.1996
lwrist 2.6025
lhand -7.75734 -36.6218
lfingers 7.12502
lthumb 18.1423 -7.44793
rfemur -0.180373 18.5375 27.0497
rtibia 16.2165
rfoot -17.9729 -25.21
rtoes -14.2791
lfemur -5.72504 -15.8082 -25.7959
ltibia 23.6423
lfoot -23.9258 19.9227
ltoes -19.717
492
root 8.5331 15.4856 19.9545 358.867 -2.93585 0.514605
lowerback 8.31182 0.729091 0.27519
upperback -4.71971 1.00908 -0.0547469
thorax -9.69571 0.467874 -0.380154
lowerneck -6.50995 -2.48236 -7.3942
upperneck 11.4292 -3.36843 6.87897
head 4.72781 -1.57343 3.13888
rclavicle 9.93923e-016 -1.59028e-015
rhumerus -45.5389 7.38837 -86.2713
rradius 31.1118
rwrist 26.3335
rhand 0.655776 -55.0572
rfingers 7.12502
rthumb 26.2183 -803.266
lclavicle 9.93923e-016 -1.59028e-015
lhumerus -37.1997 2.82193 78.8699
lradius 45.0029
lwrist 2.01605
lhand -7.52433 -36.9321
lfingers 7.12502
lthumb 18.3665 -7.77919
rfemur -0.0487728 18.6819 26.8923
rtibia 16.13
rfoot -17.871 -25.0699
rtoes -14.0118
lfemur -5.65102 -15.5098 -25.9558
ltibia 23.699
lfoot -23.9571 19.3362
ltoes -16.6292
493
root 8.53334 15.4882 19.9642 358.751 -3.1616 0.585615
lowerback 8.47476 0.715466 0.206125
upperback -4.70366 0.982867 -0.0497989
thorax -9.77624 0.459445 -0.334014
lowerneck -6.76123 -2.4343 -7.25454
upperneck 11.7002 -3.29876 6.75157
head 4.84402 -1.53612 3.07947
rclavicle -3.90115e-015 1.37161e-014
rhumerus -45.6325 7.67744 -86.6977
rradius 31.2173
rwrist 26.2751
rhand 1.15928 -55.175
rfingers 7.12502
rthumb 26.7003 -803.311
lclavicle -3.90115e-015 1.37161e-014
lhumerus -37.6641 3.05444 79.163
lradius 44.7185
lwrist 1.61089
lhand -7.30822 -37.18
lfingers 7.12502
lthumb 18.5744 -8.04684
rfemur 0.115587 18.8049 26.855
rtibia 16.0839
rfoot -17.831 -24.8742
rtoes -13.3953
lfemur -5.56271 -15.3106 -25.998
ltibia 23.7736
lfoot -23.76 18.7872
ltoes -14.2281
494
root 8.53426 15.4908 19.9775 358.586 -3.435 0.59006
lowerback 8.5467 0.725339 0.20622
upperback -4.58185 0.997984 -0.0265171
thorax -9.6851 0.468032 -0.311667
lowerneck -7.20835 -2.39915 -7.02874
upperneck 11.9837 -3.23628 6.55488
head 4.99605 -1.49936 2.9822
rclavicle -1.0225e-014 -1.63997e-014
rhumerus -45.6138 8.04358 -87.1953
rradius 31.2418
rwrist 25.7845
rhand 0.791432 -54.9479
rfingers 7.12502
rthumb 26.3482 -803.138
lclavicle -1.0225e-014 -1.63997e-014
lhumerus -38.0672 3.21942 79.5271
lradius 44.4443
lwrist 1.28094
lhand -7.16066 -37.3956
lfingers 7.12502
lthumb 18.7163 -8.27597
rfemur 0.354715 18.9924 26.9401
rtibia 16.1037
rfoot -17.5925 -24.8282
rtoes -14.0636
lfemur -5.39793 -14.9828 -26.0031
ltibia 23.8511
lfoot -22.9063 18.6862
ltoes -15.1596
495
root 8.53446 15.487 19.9863 358.496 -3.66516 0.641082
lowerback 8.65068 0.745615 0.165246
upperback -4.49922 1.0202 -0.0238948
thorax -9.65649 0.481603 -0.29035
lowerneck -7.27483 -2.40571 -7.09229
upperneck 11.9666 -3.238 6.59726
head 5.00387 -1.49929 3.00529
rclavicle -1.70209e-015 -1.09332e-014
rhumerus -45.5699 8.38406 -87.7168
rradius 31.2389
rwrist 25.221
rhand 0.160236 -54.7596
rfingers 7.12502
rthumb 25.7438 -803.038
lclavicle -1.70209e-015 -1.09332e-014
lhumerus -38.3707 3.13077 79.9767
lradius 43.9726
lwrist 1.01471
lhand -7.2004 -37.5886
lfingers 7.12502
lthumb 18.6781 -8.46536
rfemur 0.471728 19.198 26.9576
rtibia 16.1516
rfoot -17.2604 -24.8171
rtoes -14.4857
lfemur -5.28007 -14.3783 -26.0072
ltibia 23.8892
lfoot -22.2285 18.3825
ltoes -16.0568
496
root 8.53458 15.4837 19.9897 358.478 -3.87122 0.736497
lowerback 8.8039 0.779553 0.0996072
upperback -4.49729 1.05578 -0.0440297
thorax -9.7459 0.501824 -0.283353
lowerneck -7.2412 -2.35807 -7.17677
upperneck 11.9125 -3.18152 6.74182
head 4.98074 -1.46712 3.0687
rclavicle -9.42985e-015 -1.2921e-014
rhumerus -45.65 8.76351 -88.3027
rradius 31.3555
rwrist 24.7755
rhand -0.141467 -54.8542
rfingers 7.12502
rthumb 25.4549 -803.174
lclavicle -9.42985e-015 -1.2921e-014
lhumerus -38.6535 2.66528 80.5729
lradius 43.4521
lwrist 0.980822
lhand -7.19005 -37.2044
lfingers 7.12502
lthumb 18.688 -8.08204
rfemur 0.413474 19.229 26.8412
rtibia 16.2464
rfoot -17.0328 -24.5501
rtoes -13.6391
lfemur -5.24967 -13.8695 -26.0069
ltibia 23.8795
lfoot -22.1925 17.7474
ltoes -15.127
497
root 8.53418 15.4907 19.9966 358.477 -4.15047 0.934113
lowerback 8.87451 0.84212 -0.036649
upperback -4.48504 1.11484 -0.123967
thorax -9.7751 0.535953 -0.303235
lowerneck -7.59209 -2.33443 -7.15205
upperneck 12.2568 -3.15279 6.79945
head 5.14469 -1.44188 3.0841
rclavicle 1.08586e-014 -3.67752e-015
rhumerus -45.7169 9.0174 -88.8531
rradius 31.5542
rwrist 24.8618
rhand 0.523909 -55.0578
rfingers 7.12502
rthumb 26.0921 -803.286
lclavicle 1.08586e-014 -3.67752e-015
lhumerus -38.9128 2.20359 81.1544
lradius 42.9596
lwrist 0.848238
lhand -7.09484 -36.7174
lfingers 7.12502
lthumb 18.7796 -7.60391
rfemur 0.316855 19.2384 26.5775
rtibia 16.3663
rfoot -16.9564 -24.1124
rtoes -12.335
lfemur -5.2728 -13.4614 -26.1654
ltibia 23.8863
lfoot -21.6353 18.0464
ltoes -18.944
498
root 8.53219 15.4994 20.0062 358.423 -4.48316 1.11074
lowerback 9.07859 0.919957 -0.184883
upperback -4.52107 1.19249 -0.200672
thorax -9.93729 0.579424 -0.319452
lowerneck -7.95747 -2.34036 -7.02004
upperneck 12.697 -3.16195 6.70626
head 5.34036 -1.43942 3.03207
rclavicle -6.21202e-015 1.09332e-014
rhumerus -45.8284 9.14162 -89.3413
rradius 31.7426
rwrist 25.1867
rhand 1.575 -55.355
rfingers 7.12502
rthumb 27.0981 -803.43
lclavicle -6.21202e-015 1.09332e-014
lhumerus -39.3242 1.98412 81.6343
lradius 42.4746
lwrist 0.439818
lhand -6.9572 -36.5998
lfingers 7.12502
lthumb 18.912 -7.49922
rfemur 0.369461 19.4836 26.4115
rtibia 16.3784
rfoot -16.6519 -23.8793
rtoes -11.272
lfemur -5.25098 -13.0395 -26.3055
ltibia 23.9468
lfoot -20.949 18.354
ltoes -22.4018
499
root 8.53183 15.501 20.0148 358.309 -4.773 1.08137
lowerback 8.66703 0.958919 -0.174108
upperback -4.08064 1.25024 -0.166816
thorax -9.2103 0.610507 -0.285596
lowerneck -8.35612 -2.29785 -6.93934
upperneck 12.5018 -3.07248 6.64432
head 5.33965 -1.38878 3.0018
rclavicle -1.2598e-014 4.37326e-015
rhumerus -45.2209 9.43942 -89.7539
rradius 31.8872
rwrist 25.2466
rhand 2.04021 -55.7193
rfingers 7.12502
rthumb 27.543 -803.724
lclavicle -1.2598e-014 4.37326e-015
lhumerus -39.0032 2.13782 82.1358
lradius 41.8702
lwrist -0.174775
lhand -6.47941 -36.5602
lfingers 7.12502
lthumb 19.3714 -7.50509
rfemur 0.58845 19.7793 26.5198
rtibia 16.2393
rfoot -16.0177 -23.8784
rtoes -11.2087
lfemur -5.17946 -12.5968 -26.1489
ltibia 24.0584
lfoot -20.9407 17.431
ltoes -20.0597
500
root 8.53316 15.5051 20.0262 358.165 -5.03689 1.12565
lowerback 9.30719 1.00522 -0.165203
upperback -4.37262 1.30978 -0.192158
thorax -9.90867 0.634892 -0.344575
lowerneck -8.07772 -2.277 -7.09287
upperneck 12.7452 -3.07505 6.81096
head 5.37204 -1.39136 3.08328
rclavicle 2.65874e-015 1.14301e-014
rhumerus -45.9321 9.70277 -90.4562
rradius 32.1098
rwrist 25.1959
rhand 1.98731 -55.8573
rfingers 7.12502
rthumb 27.4925 -803.87
lclavicle 2.65874e-015 1.14301e-014
lhumerus -39.9472 1.76309 82.6469
lradius 41.2277
lwrist -0.742533
lhand -6.15905 -37.0301
lfingers 7.12502
lthumb 19.6795 -8.00624
rfemur 0.917761 19.9575 26.5179
rtibia 15.9381
rfoot -15.5964 -23.7317
rtoes -10.8708
lfemur -5.10796 -12.2272 -26.1208
ltibia 24.2617
lfoot -20.6531 16.9494
ltoes -20.2326
